name Walk3.mot
datacolumns 19
datarows 10
range 1.68300000 1.69200000
endheader

                time	   L_ground_force_vx	   L_ground_force_vy	   L_ground_force_vz	   L_ground_force_px	   L_ground_force_py	   L_ground_force_pz	   R_ground_force_vx	   R_ground_force_vy	   R_ground_force_vz	   R_ground_force_px	   R_ground_force_py	   R_ground_force_pz	   L_ground_torque_x	   L_ground_torque_y	   L_ground_torque_z	   R_ground_torque_x	   R_ground_torque_y	   R_ground_torque_z	
          1.68300000	          0.00000000	          0.00000000	          0.00000000	          0.00000000	          0.00000000	          0.00000000	        -26.35008687	        699.95293599	        -40.94715476	          0.28440579	          0.00000000	          0.09082360	          0.00000000	          0.00000000	          0.00000000	          0.00000000	          4.85532516	          0.00000000	
          1.68400000	          0.00000000	          0.00000000	          0.00000000	          0.00000000	          0.00000000	          0.00000000	        -26.10422500	        699.17233047	        -40.85683863	          0.28481589	          0.00000000	          0.09086642	          0.00000000	          0.00000000	          0.00000000	          0.00000000	          4.81357881	          0.00000000	
          1.68500000	          0.00000000	          0.00000000	          0.00000000	          0.00000000	          0.00000000	          0.00000000	        -25.84771004	        698.30139887	        -40.79165166	          0.28521271	          0.00000000	          0.09087778	          0.00000000	          0.00000000	          0.00000000	          0.00000000	          4.78199560	          0.00000000	
          1.68600000	          0.00000000	          0.00000000	          0.00000000	          0.00000000	          0.00000000	          0.00000000	        -25.59081898	        697.36897086	        -40.75358832	          0.28561819	          0.00000000	          0.09085420	          0.00000000	          0.00000000	          0.00000000	          0.00000000	          4.75976171	          0.00000000	
          1.68700000	          0.00000000	          0.00000000	          0.00000000	          0.00000000	          0.00000000	          0.00000000	        -25.34649016	        696.45366322	        -40.74155754	          0.28608739	          0.00000000	          0.09081850	          0.00000000	          0.00000000	          0.00000000	          0.00000000	          4.74526116	          0.00000000	
          1.68800000	          0.00000000	          0.00000000	          0.00000000	          0.00000000	          0.00000000	          0.00000000	        -25.12741270	        695.62265523	        -40.74905095	          0.28665036	          0.00000000	          0.09080517	          0.00000000	          0.00000000	          0.00000000	          0.00000000	          4.73655882	          0.00000000	
          1.68900000	          0.00000000	          0.00000000	          0.00000000	          0.00000000	          0.00000000	          0.00000000	        -24.93955124	        694.87106822	        -40.76683849	          0.28727860	          0.00000000	          0.09084176	          0.00000000	          0.00000000	          0.00000000	          0.00000000	          4.73270578	          0.00000000	
          1.69000000	          0.00000000	          0.00000000	          0.00000000	          0.00000000	          0.00000000	          0.00000000	        -24.78095114	        694.13562035	        -40.78566002	          0.28791420	          0.00000000	          0.09093871	          0.00000000	          0.00000000	          0.00000000	          0.00000000	          4.73308522	          0.00000000	
          1.69100000	          0.00000000	          0.00000000	          0.00000000	          0.00000000	          0.00000000	          0.00000000	        -24.64579174	        693.36304022	        -40.79253366	          0.28850947	          0.00000000	          0.09108047	          0.00000000	          0.00000000	          0.00000000	          0.00000000	          4.73289606	          0.00000000	
          1.69200000	          0.00000000	          0.00000000	          0.00000000	          0.00000000	          0.00000000	          0.00000000	        -24.52773333	        692.54424905	        -40.77086658	          0.28904521	          0.00000000	          0.09122548	          0.00000000	          0.00000000	          0.00000000	          0.00000000	          4.72158595	          0.00000000	
